font.ufo
<glyph name="dvKxA" format="1">
  <advance width="727"/>
  <unicode hex="0958"/>
  <outline>
    <contour>
      <point x="330" y="0" type="move" name="blwm_halant"/>
    </contour>
    <contour>
      <point x="330" y="0" type="move" name="blwm_Ukaar"/>
    </contour>
    <contour>
      <point x="397" y="0" type="move" name="blwm_VocalicR"/>
    </contour>
    <contour>
      <point x="397" y="623" type="move" name="abvm_Anusvara"/>
    </contour>
    <contour>
      <point x="330" y="0" type="move" name="blwm_Uukaar"/>
    </contour>
    <contour>
      <point x="397" y="623" type="move" name="abvm_Ekaar"/>
    </contour>
    <component base="dvKA"/>
    <component base="dvNukta" xOffset="353" yOffset="41"/>
  </outline>
</glyph>
<glyph name="dvDDxA" format="1">
  <advance width="470"/>
  <unicode hex="095C"/>
  <outline>
    <contour>
      <point x="201" y="-128" type="move" name="blwm_halant"/>
    </contour>
    <contour>
      <point x="209" y="-195" type="move" name="blwm_Ukaar"/>
    </contour>
    <contour>
      <point x="296" y="-195" type="move" name="blwm_VocalicR"/>
    </contour>
    <contour>
      <point x="271" y="623" type="move" name="abvm_Anusvara"/>
    </contour>
    <contour>
      <point x="202" y="-200" type="move" name="blwm_Uukaar"/>
    </contour>
    <contour>
      <point x="385" y="623" type="move" name="abvm_Ekaar"/>
    </contour>
    <component base="dvDDA"/>
    <component base="dvNukta" xOffset="416" yOffset="-39"/>
  </outline>
</glyph>
<glyph name="dvDDHxA" format="1">
  <advance width="486"/>
  <unicode hex="095D"/>
  <outline>
    <contour>
      <point x="215" y="-98" type="move" name="blwm_halant"/>
    </contour>
    <contour>
      <point x="238" y="-165" type="move" name="blwm_Ukaar"/>
    </contour>
    <contour>
      <point x="311" y="-165" type="move" name="blwm_VocalicR"/>
    </contour>
    <contour>
      <point x="301" y="623" type="move" name="abvm_Anusvara"/>
    </contour>
    <contour>
      <point x="209" y="-170" type="move" name="blwm_Uukaar"/>
    </contour>
    <contour>
      <point x="397" y="623" type="move" name="abvm_Ekaar"/>
    </contour>
    <component base="dvDDHA"/>
    <component base="dvNukta" xOffset="432" yOffset="-9"/>
  </outline>
</glyph>
<glyph name="dvPHxA" format="1">
  <advance width="741"/>
  <unicode hex="095E"/>
  <outline>
    <contour>
      <point x="343" y="0" type="move" name="blwm_halant"/>
    </contour>
    <contour>
      <point x="343" y="0" type="move" name="blwm_Ukaar"/>
    </contour>
    <contour>
      <point x="410" y="0" type="move" name="blwm_VocalicR"/>
    </contour>
    <contour>
      <point x="410" y="623" type="move" name="abvm_Anusvara"/>
    </contour>
    <contour>
      <point x="343" y="0" type="move" name="blwm_Uukaar"/>
    </contour>
    <contour>
      <point x="410" y="623" type="move" name="abvm_Ekaar"/>
    </contour>
    <component base="dvPHA"/>
    <component base="dvNukta" xOffset="347" yOffset="50"/>
  </outline>
</glyph>
<glyph name="dvB_DA" format="1">
  <advance width="778"/>
  <outline>
    <contour>
      <point x="645" y="9" type="move" name="blwm_halant"/>
    </contour>
    <contour>
      <point x="645" y="0" type="move" name="blwm_Ukaar"/>
    </contour>
    <contour>
      <point x="711" y="0" type="move" name="blwm_VocalicR"/>
    </contour>
    <contour>
      <point x="577" y="623" type="move" name="abvm_Anusvara"/>
    </contour>
    <contour>
      <point x="645" y="0" type="move" name="blwm_Uukaar"/>
    </contour>
    <contour>
      <point x="699" y="623" type="move" name="abvm_Ekaar"/>
    </contour>
    <component base="dvDA" xOffset="292"/>
    <component base="dvB"/>
  </outline>
</glyph>
<glyph name="dvCH_NA" format="1">
  <advance width="987"/>
  <outline>
    <contour>
      <point x="-3" y="623" type="line"/>
      <point x="-14" y="623"/>
      <point x="-19" y="618"/>
      <point x="-19" y="608" type="curve" smooth="yes"/>
      <point x="-19" y="579" type="line" smooth="yes"/>
      <point x="-19" y="568"/>
      <point x="-14" y="564"/>
      <point x="-3" y="563" type="curve" smooth="yes"/>
      <point x="104" y="563" type="line"/>
      <point x="104" y="559" type="line"/>
      <point x="80" y="547"/>
      <point x="69" y="523"/>
      <point x="69" y="485" type="curve" smooth="yes"/>
      <point x="69" y="413" type="line" smooth="yes"/>
      <point x="69" y="367"/>
      <point x="88" y="335"/>
      <point x="130" y="323" type="curve"/>
      <point x="130" y="319" type="line"/>
      <point x="87" y="305"/>
      <point x="69" y="270"/>
      <point x="69" y="218" type="curve" smooth="yes"/>
      <point x="69" y="177" type="line" smooth="yes"/>
      <point x="69" y="87"/>
      <point x="123" y="41"/>
      <point x="213" y="41" type="curve" smooth="yes"/>
      <point x="365" y="41" type="line" smooth="yes"/>
      <point x="459" y="41"/>
      <point x="508" y="105"/>
      <point x="508" y="185" type="curve" smooth="yes"/>
      <point x="508" y="344" type="line" smooth="yes"/>
      <point x="508" y="428"/>
      <point x="466" y="470"/>
      <point x="382" y="470" type="curve" smooth="yes"/>
      <point x="342" y="470" type="line" smooth="yes"/>
      <point x="331" y="470"/>
      <point x="326" y="465"/>
      <point x="326" y="456" type="curve" smooth="yes"/>
      <point x="326" y="426" type="line" smooth="yes"/>
      <point x="326" y="416"/>
      <point x="331" y="411"/>
      <point x="342" y="411" type="curve" smooth="yes"/>
      <point x="378" y="411" type="line" smooth="yes"/>
      <point x="422" y="411"/>
      <point x="442" y="388"/>
      <point x="442" y="344" type="curve" smooth="yes"/>
      <point x="442" y="193" type="line" smooth="yes"/>
      <point x="442" y="133"/>
      <point x="413" y="103"/>
      <point x="354" y="103" type="curve" smooth="yes"/>
      <point x="219" y="103" type="line" smooth="yes"/>
      <point x="161" y="103"/>
      <point x="137" y="126"/>
      <point x="137" y="183" type="curve" smooth="yes"/>
      <point x="137" y="217" type="line" smooth="yes"/>
      <point x="137" y="266"/>
      <point x="160" y="292"/>
      <point x="211" y="292" type="curve" smooth="yes"/>
      <point x="245" y="292" type="line" smooth="yes"/>
      <point x="256" y="292"/>
      <point x="260" y="297"/>
      <point x="260" y="306" type="curve" smooth="yes"/>
      <point x="260" y="337" type="line" smooth="yes"/>
      <point x="260" y="347"/>
      <point x="256" y="352"/>
      <point x="245" y="352" type="curve" smooth="yes"/>
      <point x="206" y="352" type="line" smooth="yes"/>
      <point x="161" y="352"/>
      <point x="137" y="377"/>
      <point x="137" y="422" type="curve" smooth="yes"/>
      <point x="137" y="486" type="line" smooth="yes"/>
      <point x="137" y="537"/>
      <point x="158" y="563"/>
      <point x="208" y="563" type="curve" smooth="yes"/>
      <point x="576" y="563" type="line" smooth="yes"/>
      <point x="587" y="564"/>
      <point x="591" y="568"/>
      <point x="591" y="579" type="curve" smooth="yes"/>
      <point x="591" y="608" type="line" smooth="yes"/>
      <point x="591" y="618"/>
      <point x="587" y="623"/>
      <point x="576" y="623" type="curve" smooth="yes"/>
    </contour>
    <contour>
      <point x="827" y="563" type="line"/>
      <point x="834" y="563"/>
      <point x="836" y="559"/>
      <point x="836" y="553" type="curve" smooth="yes"/>
      <point x="836" y="393" type="line" smooth="yes"/>
      <point x="836" y="386"/>
      <point x="833" y="383"/>
      <point x="826" y="383" type="curve"/>
      <point x="652" y="383" type="line" smooth="yes"/>
      <point x="586" y="383"/>
      <point x="547" y="341"/>
      <point x="547" y="281" type="curve" smooth="yes"/>
      <point x="547" y="256"/>
      <point x="552" y="225"/>
      <point x="564" y="203" type="curve" smooth="yes"/>
      <point x="569" y="195"/>
      <point x="576" y="192"/>
      <point x="585" y="192" type="curve" smooth="yes"/>
      <point x="614" y="192" type="line" smooth="yes"/>
      <point x="623" y="192"/>
      <point x="628" y="197"/>
      <point x="628" y="205" type="curve" smooth="yes"/>
      <point x="628" y="210"/>
      <point x="626" y="215"/>
      <point x="624" y="224" type="curve" smooth="yes"/>
      <point x="619" y="239"/>
      <point x="615" y="254"/>
      <point x="615" y="270" type="curve" smooth="yes"/>
      <point x="615" y="304"/>
      <point x="635" y="321"/>
      <point x="673" y="321" type="curve" smooth="yes"/>
      <point x="826" y="321" type="line" smooth="yes"/>
      <point x="833" y="321"/>
      <point x="836" y="317"/>
      <point x="836" y="311" type="curve" smooth="yes"/>
      <point x="836" y="15" type="line" smooth="yes"/>
      <point x="836" y="4"/>
      <point x="841" y="0"/>
      <point x="851" y="0" type="curve" smooth="yes"/>
      <point x="889" y="0" type="line" smooth="yes"/>
      <point x="899" y="0"/>
      <point x="905" y="4"/>
      <point x="905" y="15" type="curve" smooth="yes"/>
      <point x="905" y="553" type="line" smooth="yes"/>
      <point x="905" y="559"/>
      <point x="907" y="563"/>
      <point x="915" y="563" type="curve" smooth="yes"/>
      <point x="990" y="563" type="line" smooth="yes"/>
      <point x="1002" y="563"/>
      <point x="1006" y="568"/>
      <point x="1006" y="578" type="curve" smooth="yes"/>
      <point x="1006" y="608" type="line" smooth="yes"/>
      <point x="1006" y="618"/>
      <point x="1002" y="623"/>
      <point x="990" y="623" type="curve" smooth="yes"/>
      <point x="506" y="623" type="line" smooth="yes"/>
      <point x="495" y="623"/>
      <point x="490" y="618"/>
      <point x="490" y="608" type="curve" smooth="yes"/>
      <point x="490" y="578" type="line" smooth="yes"/>
      <point x="490" y="568"/>
      <point x="495" y="563"/>
      <point x="506" y="563" type="curve"/>
    </contour>
  </outline>
</glyph>
<glyph name="dvCH_RA" format="1">
  <advance width="573"/>
  <outline>
    <contour>
      <point x="257" y="-94" type="move" name="blwm_halant"/>
    </contour>
    <contour>
      <point x="301" y="-161" type="move" name="blwm_Ukaar"/>
    </contour>
    <contour>
      <point x="357" y="-161" type="move" name="blwm_VocalicR"/>
    </contour>
    <contour>
      <point x="315" y="623" type="move" name="abvm_Anusvara"/>
    </contour>
    <contour>
      <point x="258" y="-164" type="move" name="blwm_Uukaar"/>
    </contour>
    <contour>
      <point x="487" y="623" type="move" name="abvm_Ekaar"/>
    </contour>
    <component base="dvCHA"/>
    <component base="dvRashtrasign" xOffset="546" yOffset="85"/>
  </outline>
</glyph>
<glyph name="dvCH_VA" format="1">
  <advance width="573"/>
  <outline>
    <contour>
      <point x="258" y="-104" type="move" name="blwm_halant"/>
    </contour>
    <contour>
      <point x="302" y="-172" type="move" name="blwm_Ukaar"/>
    </contour>
    <contour>
      <point x="349" y="-172" type="move" name="blwm_VocalicR"/>
    </contour>
    <contour>
      <point x="315" y="623" type="move" name="abvm_Anusvara"/>
    </contour>
    <contour>
      <point x="258" y="-176" type="move" name="blwm_Uukaar"/>
    </contour>
    <contour>
      <point x="487" y="623" type="move" name="abvm_Ekaar"/>
    </contour>
    <contour>
      <point x="-3" y="623" type="line"/>
      <point x="-14" y="623"/>
      <point x="-19" y="618"/>
      <point x="-19" y="608" type="curve" smooth="yes"/>
      <point x="-19" y="579" type="line" smooth="yes"/>
      <point x="-19" y="568"/>
      <point x="-14" y="564"/>
      <point x="-3" y="563" type="curve" smooth="yes"/>
      <point x="104" y="563" type="line"/>
      <point x="104" y="559" type="line"/>
      <point x="80" y="547"/>
      <point x="69" y="523"/>
      <point x="69" y="485" type="curve" smooth="yes"/>
      <point x="69" y="438" type="line" smooth="yes"/>
      <point x="69" y="392"/>
      <point x="88" y="360"/>
      <point x="130" y="348" type="curve"/>
      <point x="130" y="344" type="line"/>
      <point x="87" y="330"/>
      <point x="69" y="295"/>
      <point x="69" y="243" type="curve" smooth="yes"/>
      <point x="69" y="226" type="line" smooth="yes"/>
      <point x="69" y="137"/>
      <point x="123" y="92"/>
      <point x="213" y="92" type="curve" smooth="yes"/>
      <point x="353" y="92" type="line" smooth="yes"/>
      <point x="443" y="92"/>
      <point x="508" y="156"/>
      <point x="508" y="249" type="curve" smooth="yes"/>
      <point x="508" y="324" type="line" smooth="yes"/>
      <point x="508" y="408"/>
      <point x="466" y="451"/>
      <point x="382" y="451" type="curve" smooth="yes"/>
      <point x="342" y="451" type="line" smooth="yes"/>
      <point x="331" y="451"/>
      <point x="326" y="445"/>
      <point x="326" y="436" type="curve" smooth="yes"/>
      <point x="326" y="406" type="line" smooth="yes"/>
      <point x="326" y="396"/>
      <point x="331" y="391"/>
      <point x="342" y="391" type="curve" smooth="yes"/>
      <point x="378" y="391" type="line" smooth="yes"/>
      <point x="422" y="391"/>
      <point x="442" y="369"/>
      <point x="442" y="324" type="curve" smooth="yes"/>
      <point x="442" y="242" type="line" smooth="yes"/>
      <point x="442" y="182"/>
      <point x="413" y="152"/>
      <point x="354" y="152" type="curve" smooth="yes"/>
      <point x="219" y="152" type="line" smooth="yes"/>
      <point x="161" y="152"/>
      <point x="137" y="175"/>
      <point x="137" y="232" type="curve" smooth="yes"/>
      <point x="137" y="242" type="line" smooth="yes"/>
      <point x="137" y="291"/>
      <point x="160" y="316"/>
      <point x="211" y="316" type="curve" smooth="yes"/>
      <point x="245" y="316" type="line" smooth="yes"/>
      <point x="256" y="316"/>
      <point x="260" y="322"/>
      <point x="260" y="331" type="curve" smooth="yes"/>
      <point x="260" y="362" type="line" smooth="yes"/>
      <point x="260" y="372"/>
      <point x="256" y="377"/>
      <point x="245" y="377" type="curve" smooth="yes"/>
      <point x="206" y="377" type="line" smooth="yes"/>
      <point x="161" y="377"/>
      <point x="137" y="401"/>
      <point x="137" y="447" type="curve" smooth="yes"/>
      <point x="137" y="486" type="line" smooth="yes"/>
      <point x="137" y="537"/>
      <point x="158" y="563"/>
      <point x="208" y="563" type="curve" smooth="yes"/>
      <point x="400" y="563" type="line" smooth="yes"/>
      <point x="408" y="563"/>
      <point x="411" y="560"/>
      <point x="411" y="553" type="curve" smooth="yes"/>
      <point x="411" y="471" type="line" smooth="yes"/>
      <point x="411" y="446"/>
      <point x="401" y="429"/>
      <point x="386" y="419" type="curve"/>
      <point x="447" y="419" type="line"/>
      <point x="465" y="427"/>
      <point x="481" y="447"/>
      <point x="481" y="480" type="curve" smooth="yes"/>
      <point x="481" y="553" type="line" smooth="yes"/>
      <point x="481" y="560"/>
      <point x="484" y="563"/>
      <point x="492" y="563" type="curve" smooth="yes"/>
      <point x="576" y="563" type="line" smooth="yes"/>
      <point x="587" y="564"/>
      <point x="591" y="568"/>
      <point x="591" y="579" type="curve" smooth="yes"/>
      <point x="591" y="608" type="line" smooth="yes"/>
      <point x="591" y="618"/>
      <point x="587" y="623"/>
      <point x="576" y="623" type="curve"/>
    </contour>
    <contour>
      <point x="415" y="161" type="line"/>
      <point x="415" y="34" type="line" smooth="yes"/>
      <point x="415" y="-19"/>
      <point x="389" y="-55"/>
      <point x="325" y="-55" type="curve" smooth="yes"/>
      <point x="251" y="-55" type="line" smooth="yes"/>
      <point x="190" y="-55"/>
      <point x="167" y="-30"/>
      <point x="167" y="24" type="curve" smooth="yes"/>
      <point x="167" y="63"/>
      <point x="186" y="92"/>
      <point x="234" y="92" type="curve"/>
      <point x="167" y="124" type="line"/>
      <point x="128" y="111"/>
      <point x="99" y="80"/>
      <point x="99" y="18" type="curve" smooth="yes"/>
      <point x="99" y="-67"/>
      <point x="151" y="-115"/>
      <point x="239" y="-115" type="curve" smooth="yes"/>
      <point x="336" y="-115" type="line" smooth="yes"/>
      <point x="425" y="-115"/>
      <point x="481" y="-56"/>
      <point x="481" y="37" type="curve" smooth="yes"/>
      <point x="481" y="161" type="line"/>
    </contour>
  </outline>
</glyph>
<glyph name="dvC_CH_VA" format="1">
  <advance width="913"/>
  <outline>
    <contour>
      <point x="598" y="-105" type="move" name="blwm_halant"/>
    </contour>
    <contour>
      <point x="653" y="-172" type="move" name="blwm_Ukaar"/>
    </contour>
    <contour>
      <point x="689" y="-172" type="move" name="blwm_VocalicR"/>
    </contour>
    <contour>
      <point x="656" y="623" type="move" name="abvm_Anusvara"/>
    </contour>
    <contour>
      <point x="593" y="-176" type="move" name="blwm_Uukaar"/>
    </contour>
    <contour>
      <point x="828" y="623" type="move" name="abvm_Ekaar"/>
    </contour>
    <contour>
      <point x="448" y="563" type="line"/>
      <point x="459" y="563"/>
      <point x="464" y="568"/>
      <point x="464" y="578" type="curve" smooth="yes"/>
      <point x="464" y="608" type="line" smooth="yes"/>
      <point x="464" y="618"/>
      <point x="459" y="623"/>
      <point x="448" y="623" type="curve"/>
      <point x="-3" y="623" type="line"/>
      <point x="-14" y="623"/>
      <point x="-19" y="618"/>
      <point x="-19" y="608" type="curve" smooth="yes"/>
      <point x="-19" y="578" type="line" smooth="yes"/>
      <point x="-19" y="568"/>
      <point x="-14" y="563"/>
      <point x="-3" y="563" type="curve"/>
    </contour>
    <contour>
      <point x="329" y="97" type="line"/>
      <point x="402" y="97"/>
      <point x="445" y="140"/>
      <point x="469" y="173" type="curve" smooth="yes"/>
      <point x="471" y="176"/>
      <point x="475" y="181"/>
      <point x="475" y="186" type="curve" smooth="yes"/>
      <point x="475" y="192"/>
      <point x="472" y="196"/>
      <point x="466" y="201" type="curve" smooth="yes"/>
      <point x="452" y="212" type="line" smooth="yes"/>
      <point x="446" y="217"/>
      <point x="443" y="218"/>
      <point x="439" y="218" type="curve" smooth="yes"/>
      <point x="432" y="218"/>
      <point x="427" y="213"/>
      <point x="421" y="207" type="curve" smooth="yes"/>
      <point x="398" y="182"/>
      <point x="377" y="159"/>
      <point x="328" y="159" type="curve"/>
      <point x="261" y="159" type="line"/>
      <point x="201" y="159"/>
      <point x="171" y="190"/>
      <point x="171" y="249" type="curve" smooth="yes"/>
      <point x="171" y="288" type="line" smooth="yes"/>
      <point x="171" y="346"/>
      <point x="200" y="378"/>
      <point x="255" y="378" type="curve" smooth="yes"/>
      <point x="311" y="378" type="line" smooth="yes"/>
      <point x="322" y="378"/>
      <point x="326" y="383"/>
      <point x="326" y="393" type="curve" smooth="yes"/>
      <point x="326" y="425" type="line" smooth="yes"/>
      <point x="326" y="434"/>
      <point x="322" y="440"/>
      <point x="311" y="440" type="curve" smooth="yes"/>
      <point x="38" y="440" type="line" smooth="yes"/>
      <point x="27" y="440"/>
      <point x="22" y="434"/>
      <point x="22" y="425" type="curve" smooth="yes"/>
      <point x="22" y="393" type="line" smooth="yes"/>
      <point x="22" y="383"/>
      <point x="27" y="378"/>
      <point x="38" y="378" type="curve" smooth="yes"/>
      <point x="146" y="378" type="line"/>
      <point x="146" y="374" type="line"/>
      <point x="116" y="358"/>
      <point x="103" y="324"/>
      <point x="103" y="283" type="curve" smooth="yes"/>
      <point x="103" y="245" type="line" smooth="yes"/>
      <point x="103" y="151"/>
      <point x="159" y="97"/>
      <point x="252" y="97" type="curve"/>
    </contour>
    <component base="dvCH_VA" xOffset="347"/>
  </outline>
</glyph>
<glyph name="dvDDH_RA" format="1">
  <advance width="486"/>
  <outline>
    <contour>
      <point x="227" y="-97" type="move" name="blwm_halant"/>
    </contour>
    <contour>
      <point x="244" y="-164" type="move" name="blwm_Ukaar"/>
    </contour>
    <contour>
      <point x="322" y="-164" type="move" name="blwm_VocalicR"/>
    </contour>
    <contour>
      <point x="301" y="623" type="move" name="abvm_Anusvara"/>
    </contour>
    <contour>
      <point x="224" y="-168" type="move" name="blwm_Uukaar"/>
    </contour>
    <contour>
      <point x="397" y="623" type="move" name="abvm_Ekaar"/>
    </contour>
    <component base="dvRashtrasign" xOffset="517" yOffset="79"/>
    <component base="dvDDHA"/>
  </outline>
</glyph>
<glyph name="dvDD_NA" format="1">
  <advance width="483"/>
  <outline>
    <contour>
      <point x="329" y="-255" type="move" name="blwm_halant"/>
    </contour>
    <contour>
      <point x="329" y="-255" type="move" name="blwm_Ukaar"/>
    </contour>
    <contour>
      <point x="397" y="-255" type="move" name="blwm_VocalicR"/>
    </contour>
    <contour>
      <point x="285" y="623" type="move" name="abvm_Anusvara"/>
    </contour>
    <contour>
      <point x="329" y="-255" type="move" name="blwm_Uukaar"/>
    </contour>
    <contour>
      <point x="397" y="623" type="move" name="abvm_Ekaar"/>
    </contour>
    <contour>
      <point x="-3" y="623" type="line"/>
      <point x="-14" y="623"/>
      <point x="-19" y="618"/>
      <point x="-19" y="608" type="curve" smooth="yes"/>
      <point x="-19" y="578" type="line" smooth="yes"/>
      <point x="-19" y="568"/>
      <point x="-14" y="563"/>
      <point x="-3" y="563" type="curve" smooth="yes"/>
      <point x="320" y="563" type="line" smooth="yes"/>
      <point x="327" y="563"/>
      <point x="330" y="559"/>
      <point x="330" y="553" type="curve" smooth="yes"/>
      <point x="330" y="492" type="line" smooth="yes"/>
      <point x="330" y="485"/>
      <point x="326" y="481"/>
      <point x="319" y="481" type="curve" smooth="yes"/>
      <point x="195" y="481" type="line" smooth="yes"/>
      <point x="115" y="481"/>
      <point x="66" y="446"/>
      <point x="66" y="369" type="curve" smooth="yes"/>
      <point x="66" y="360" type="line" smooth="yes"/>
      <point x="66" y="282"/>
      <point x="109" y="250"/>
      <point x="195" y="250" type="curve" smooth="yes"/>
      <point x="291" y="250" type="line" smooth="yes"/>
      <point x="337" y="250"/>
      <point x="357" y="236"/>
      <point x="357" y="190" type="curve" smooth="yes"/>
      <point x="357" y="183" type="line" smooth="yes"/>
      <point x="357" y="138"/>
      <point x="337" y="122"/>
      <point x="291" y="122" type="curve" smooth="yes"/>
      <point x="201" y="122" type="line" smooth="yes"/>
      <point x="148" y="122"/>
      <point x="126" y="134"/>
      <point x="126" y="186" type="curve" smooth="yes"/>
      <point x="126" y="193" type="line" smooth="yes"/>
      <point x="126" y="205"/>
      <point x="121" y="211"/>
      <point x="112" y="211" type="curve" smooth="yes"/>
      <point x="77" y="211" type="line" smooth="yes"/>
      <point x="66" y="211"/>
      <point x="61" y="205"/>
      <point x="61" y="193" type="curve" smooth="yes"/>
      <point x="61" y="185" type="line" smooth="yes"/>
      <point x="61" y="91"/>
      <point x="112" y="62"/>
      <point x="196" y="62" type="curve" smooth="yes"/>
      <point x="299" y="62" type="line" smooth="yes"/>
      <point x="380" y="62"/>
      <point x="426" y="102"/>
      <point x="426" y="178" type="curve" smooth="yes"/>
      <point x="426" y="197" type="line" smooth="yes"/>
      <point x="426" y="272"/>
      <point x="380" y="307"/>
      <point x="299" y="307" type="curve" smooth="yes"/>
      <point x="200" y="307" type="line" smooth="yes"/>
      <point x="153" y="307"/>
      <point x="133" y="320"/>
      <point x="133" y="364" type="curve" smooth="yes"/>
      <point x="133" y="407"/>
      <point x="153" y="420"/>
      <point x="200" y="420" type="curve" smooth="yes"/>
      <point x="362" y="420" type="line" smooth="yes"/>
      <point x="382" y="420"/>
      <point x="397" y="431"/>
      <point x="397" y="455" type="curve" smooth="yes"/>
      <point x="397" y="553" type="line" smooth="yes"/>
      <point x="397" y="559"/>
      <point x="400" y="563"/>
      <point x="407" y="563" type="curve" smooth="yes"/>
      <point x="486" y="563" type="line" smooth="yes"/>
      <point x="497" y="563"/>
      <point x="501" y="568"/>
      <point x="501" y="578" type="curve" smooth="yes"/>
      <point x="501" y="608" type="line" smooth="yes"/>
      <point x="501" y="618"/>
      <point x="497" y="623"/>
      <point x="486" y="623" type="curve" smooth="yes"/>
    </contour>
    <contour>
      <point x="329" y="107" type="line"/>
      <point x="329" y="-3" type="line" smooth="yes"/>
      <point x="329" y="-9"/>
      <point x="326" y="-13"/>
      <point x="318" y="-13" type="curve" smooth="yes"/>
      <point x="168" y="-13" type="line" smooth="yes"/>
      <point x="102" y="-13"/>
      <point x="63" y="-55"/>
      <point x="63" y="-115" type="curve" smooth="yes"/>
      <point x="63" y="-140"/>
      <point x="68" y="-170"/>
      <point x="80" y="-193" type="curve" smooth="yes"/>
      <point x="84" y="-201"/>
      <point x="91" y="-204"/>
      <point x="101" y="-204" type="curve" smooth="yes"/>
      <point x="130" y="-204" type="line" smooth="yes"/>
      <point x="139" y="-204"/>
      <point x="143" y="-199"/>
      <point x="143" y="-191" type="curve" smooth="yes"/>
      <point x="143" y="-186"/>
      <point x="142" y="-181"/>
      <point x="139" y="-172" type="curve" smooth="yes"/>
      <point x="135" y="-157"/>
      <point x="131" y="-142"/>
      <point x="131" y="-126" type="curve" smooth="yes"/>
      <point x="131" y="-92"/>
      <point x="150" y="-75"/>
      <point x="189" y="-75" type="curve" smooth="yes"/>
      <point x="318" y="-75" type="line" smooth="yes"/>
      <point x="326" y="-75"/>
      <point x="329" y="-79"/>
      <point x="329" y="-85" type="curve" smooth="yes"/>
      <point x="329" y="-240" type="line" smooth="yes"/>
      <point x="329" y="-252"/>
      <point x="334" y="-255"/>
      <point x="344" y="-255" type="curve" smooth="yes"/>
      <point x="382" y="-255" type="line" smooth="yes"/>
      <point x="392" y="-255"/>
      <point x="397" y="-252"/>
      <point x="397" y="-240" type="curve" smooth="yes"/>
      <point x="397" y="107" type="line"/>
    </contour>
  </outline>
</glyph>
<glyph name="dvD_Y_BHA" format="1">
  <advance width="619"/>
  <outline>
    <contour>
      <point x="397" y="146" type="line"/>
      <point x="243" y="-4" type="line" smooth="yes"/>
      <point x="240" y="-7"/>
      <point x="237" y="-9"/>
      <point x="234" y="-9" type="curve" smooth="yes"/>
      <point x="231" y="-9"/>
      <point x="228" y="-8"/>
      <point x="223" y="-3" type="curve" smooth="yes"/>
      <point x="212" y="8"/>
      <point x="181" y="34"/>
      <point x="168" y="34" type="curve" smooth="yes"/>
      <point x="138" y="49"/>
      <point x="106" y="46"/>
      <point x="74" y="28" type="curve" smooth="yes"/>
      <point x="55" y="23"/>
      <point x="40" y="15"/>
      <point x="24" y="-2" type="curve"/>
      <point x="22" y="-6"/>
      <point x="22" y="-10"/>
      <point x="25" y="-14" type="curve" smooth="yes"/>
      <point x="25" y="-15"/>
      <point x="44" y="-31"/>
      <point x="44" y="-33" type="curve" smooth="yes"/>
      <point x="47" y="-35"/>
      <point x="52" y="-40"/>
      <point x="55" y="-40" type="curve" smooth="yes"/>
      <point x="59" y="-42"/>
      <point x="62" y="-41"/>
      <point x="66" y="-38" type="curve" smooth="yes"/>
      <point x="67" y="-38"/>
      <point x="70" y="-35"/>
      <point x="71" y="-34" type="curve" smooth="yes"/>
      <point x="88" y="-19"/>
      <point x="103" y="-10"/>
      <point x="119" y="-10" type="curve" smooth="yes"/>
      <point x="135" y="-10"/>
      <point x="148" y="-17"/>
      <point x="163" y="-32" type="curve" smooth="yes"/>
      <point x="292" y="-168" type="line" smooth="yes"/>
      <point x="296" y="-171"/>
      <point x="300" y="-173"/>
      <point x="303" y="-173" type="curve" smooth="yes"/>
      <point x="306" y="-173"/>
      <point x="309" y="-172"/>
      <point x="314" y="-168" type="curve" smooth="yes"/>
      <point x="338" y="-143" type="line"/>
      <point x="342" y="-140"/>
      <point x="343" y="-136"/>
      <point x="343" y="-132" type="curve" smooth="yes"/>
      <point x="343" y="-129"/>
      <point x="342" y="-125"/>
      <point x="338" y="-121" type="curve" smooth="yes"/>
      <point x="284" y="-64" type="line" smooth="yes"/>
      <point x="281" y="-61"/>
      <point x="280" y="-58"/>
      <point x="280" y="-56" type="curve" smooth="yes"/>
      <point x="280" y="-53"/>
      <point x="282" y="-49"/>
      <point x="285" y="-46" type="curve" smooth="yes"/>
      <point x="472" y="137" type="line"/>
    </contour>
    <contour>
      <point x="229" y="493" type="line"/>
      <point x="142" y="493"/>
      <point x="100" y="455"/>
      <point x="100" y="384" type="curve" smooth="yes"/>
      <point x="100" y="336"/>
      <point x="118" y="310"/>
      <point x="152" y="296" type="curve"/>
      <point x="152" y="292" type="line"/>
      <point x="117" y="278"/>
      <point x="100" y="249"/>
      <point x="100" y="205" type="curve" smooth="yes"/>
      <point x="100" y="128"/>
      <point x="148" y="89"/>
      <point x="236" y="89" type="curve" smooth="yes"/>
      <point x="376" y="89" type="line" smooth="yes"/>
      <point x="417" y="89"/>
      <point x="436" y="107"/>
      <point x="465" y="129" type="curve"/>
      <point x="469" y="129" type="line"/>
      <point x="469" y="-157" type="line" smooth="yes"/>
      <point x="469" y="-168"/>
      <point x="474" y="-172"/>
      <point x="484" y="-172" type="curve" smooth="yes"/>
      <point x="522" y="-172" type="line" smooth="yes"/>
      <point x="532" y="-172"/>
      <point x="537" y="-168"/>
      <point x="537" y="-157" type="curve" smooth="yes"/>
      <point x="537" y="553" type="line" smooth="yes"/>
      <point x="537" y="559"/>
      <point x="540" y="563"/>
      <point x="547" y="563" type="curve" smooth="yes"/>
      <point x="623" y="563" type="line"/>
      <point x="634" y="563"/>
      <point x="638" y="568"/>
      <point x="638" y="578" type="curve" smooth="yes"/>
      <point x="638" y="608" type="line" smooth="yes"/>
      <point x="638" y="618"/>
      <point x="634" y="623"/>
      <point x="623" y="623" type="curve" smooth="yes"/>
      <point x="-3" y="623" type="line" smooth="yes"/>
      <point x="-14" y="623"/>
      <point x="-19" y="618"/>
      <point x="-19" y="608" type="curve" smooth="yes"/>
      <point x="-19" y="579" type="line" smooth="yes"/>
      <point x="-19" y="568"/>
      <point x="-14" y="563"/>
      <point x="-3" y="563" type="curve" smooth="yes"/>
      <point x="269" y="563" type="line" smooth="yes"/>
      <point x="277" y="563"/>
      <point x="280" y="559"/>
      <point x="280" y="553" type="curve" smooth="yes"/>
      <point x="280" y="504" type="line" smooth="yes"/>
      <point x="280" y="497"/>
      <point x="277" y="493"/>
      <point x="269" y="493" type="curve" smooth="yes"/>
    </contour>
    <contour>
      <point x="313" y="441" type="line"/>
      <point x="332" y="441"/>
      <point x="347" y="452"/>
      <point x="347" y="475" type="curve" smooth="yes"/>
      <point x="347" y="553" type="line" smooth="yes"/>
      <point x="347" y="559"/>
      <point x="350" y="563"/>
      <point x="358" y="563" type="curve" smooth="yes"/>
      <point x="458" y="563" type="line"/>
      <point x="466" y="563"/>
      <point x="469" y="559"/>
      <point x="469" y="553" type="curve" smooth="yes"/>
      <point x="469" y="238" type="line" smooth="yes"/>
      <point x="469" y="182"/>
      <point x="442" y="149"/>
      <point x="372" y="149" type="curve" smooth="yes"/>
      <point x="236" y="149" type="line" smooth="yes"/>
      <point x="190" y="149"/>
      <point x="168" y="165"/>
      <point x="168" y="209" type="curve" smooth="yes"/>
      <point x="168" y="251"/>
      <point x="188" y="267"/>
      <point x="236" y="267" type="curve" smooth="yes"/>
      <point x="299" y="267" type="line" smooth="yes"/>
      <point x="310" y="267"/>
      <point x="315" y="272"/>
      <point x="315" y="282" type="curve" smooth="yes"/>
      <point x="315" y="309" type="line" smooth="yes"/>
      <point x="315" y="319"/>
      <point x="310" y="324"/>
      <point x="299" y="324" type="curve" smooth="yes"/>
      <point x="236" y="324" type="line" smooth="yes"/>
      <point x="189" y="324"/>
      <point x="168" y="341"/>
      <point x="168" y="382" type="curve" smooth="yes"/>
      <point x="168" y="426"/>
      <point x="189" y="441"/>
      <point x="242" y="441" type="curve" smooth="yes"/>
    </contour>
  </outline>
</glyph>
<glyph name="dvG_DA" format="1">
  <advance width="752"/>
  <outline>
    <contour>
      <point x="618" y="9" type="move" name="blwm_halant"/>
    </contour>
    <contour>
      <point x="618" y="0" type="move" name="blwm_Ukaar"/>
    </contour>
    <contour>
      <point x="685" y="0" type="move" name="blwm_VocalicR"/>
    </contour>
    <contour>
      <point x="550" y="623" type="move" name="abvm_Anusvara"/>
    </contour>
    <contour>
      <point x="618" y="0" type="move" name="blwm_Uukaar"/>
    </contour>
    <contour>
      <point x="672" y="623" type="move" name="abvm_Ekaar"/>
    </contour>
    <component base="dvG"/>
    <component base="dvDA" xOffset="265"/>
  </outline>
</glyph>
<glyph name="dvK_DA" format="1">
  <advance width="1007"/>
  <outline>
    <contour>
      <point x="873" y="9" type="move" name="blwm_halant"/>
    </contour>
    <contour>
      <point x="873" y="0" type="move" name="blwm_Ukaar"/>
    </contour>
    <contour>
      <point x="939" y="0" type="move" name="blwm_VocalicR"/>
    </contour>
    <contour>
      <point x="805" y="623" type="move" name="abvm_Anusvara"/>
    </contour>
    <contour>
      <point x="873" y="0" type="move" name="blwm_Uukaar"/>
    </contour>
    <contour>
      <point x="927" y="623" type="move" name="abvm_Ekaar"/>
    </contour>
    <component base="dvDA" xOffset="520"/>
    <component base="dvK"/>
  </outline>
</glyph>
<glyph name="dvK_KA" format="1">
  <advance width="1251"/>
  <outline>
    <contour>
      <point x="854" y="0" type="move" name="blwm_halant"/>
    </contour>
    <contour>
      <point x="854" y="0" type="move" name="blwm_Ukaar"/>
    </contour>
    <contour>
      <point x="921" y="0" type="move" name="blwm_VocalicR"/>
    </contour>
    <contour>
      <point x="921" y="623" type="move" name="abvm_Anusvara"/>
    </contour>
    <contour>
      <point x="854" y="0" type="move" name="blwm_Uukaar"/>
    </contour>
    <contour>
      <point x="921" y="623" type="move" name="abvm_Ekaar"/>
    </contour>
    <component base="dvKA" xOffset="524"/>
    <component base="dvK"/>
  </outline>
</glyph>
<glyph name="dvK_TTA" format="1">
  <advance width="980"/>
  <outline>
    <contour>
      <point x="709" y="46" type="move" name="blwm_halant"/>
    </contour>
    <contour>
      <point x="745" y="-20" type="move" name="blwm_Ukaar"/>
    </contour>
    <contour>
      <point x="846" y="79" type="move" name="blwm_Rashtra"/>
    </contour>
    <contour>
      <point x="811" y="-20" type="move" name="blwm_VocalicR"/>
    </contour>
    <contour>
      <point x="791" y="623" type="move" name="abvm_Anusvara"/>
    </contour>
    <contour>
      <point x="706" y="-24" type="move" name="blwm_Uukaar"/>
    </contour>
    <contour>
      <point x="881" y="623" type="move" name="abvm_Ekaar"/>
    </contour>
    <component base="dvTTA" xOffset="501"/>
    <component base="dvK"/>
  </outline>
</glyph>
<glyph name="dvKx_RA" format="1">
  <advance width="727"/>
  <outline>
    <contour>
      <point x="330" y="0" type="move" name="blwm_halant"/>
    </contour>
    <contour>
      <point x="330" y="0" type="move" name="blwm_Ukaar"/>
    </contour>
    <contour>
      <point x="397" y="0" type="move" name="blwm_VocalicR"/>
    </contour>
    <contour>
      <point x="397" y="623" type="move" name="abvm_Anusvara"/>
    </contour>
    <contour>
      <point x="330" y="0" type="move" name="blwm_Uukaar"/>
    </contour>
    <contour>
      <point x="397" y="623" type="move" name="abvm_Ekaar"/>
    </contour>
    <component base="dvK_RA"/>
    <component base="dvNukta" xOffset="419" yOffset="-29"/>
  </outline>
</glyph>
<glyph name="dvL_DA" format="1">
  <advance width="928"/>
  <outline>
    <contour>
      <point x="794" y="9" type="move" name="blwm_halant"/>
    </contour>
    <contour>
      <point x="794" y="0" type="move" name="blwm_Ukaar"/>
    </contour>
    <contour>
      <point x="861" y="0" type="move" name="blwm_VocalicR"/>
    </contour>
    <contour>
      <point x="726" y="623" type="move" name="abvm_Anusvara"/>
    </contour>
    <contour>
      <point x="794" y="0" type="move" name="blwm_Uukaar"/>
    </contour>
    <contour>
      <point x="848" y="623" type="move" name="abvm_Ekaar"/>
    </contour>
    <component base="dvL"/>
    <component base="dvDA" xOffset="441"/>
  </outline>
</glyph>
<glyph name="dvL_DDHA" format="1">
  <advance width="915"/>
  <outline>
    <contour>
      <point x="647" y="46" type="move" name="blwm_halant"/>
    </contour>
    <contour>
      <point x="674" y="-20" type="move" name="blwm_Ukaar"/>
    </contour>
    <contour>
      <point x="788" y="79" type="move" name="blwm_Rashtra"/>
    </contour>
    <contour>
      <point x="744" y="-20" type="move" name="blwm_VocalicR"/>
    </contour>
    <contour>
      <point x="730" y="623" type="move" name="abvm_Anusvara"/>
    </contour>
    <contour>
      <point x="638" y="-24" type="move" name="blwm_Uukaar"/>
    </contour>
    <contour>
      <point x="826" y="623" type="move" name="abvm_Ekaar"/>
    </contour>
    <component base="dvL"/>
    <component base="dvDDHA" xOffset="429"/>
  </outline>
</glyph>
<glyph name="dvL_D_RA" format="1">
  <advance width="925"/>
  <outline>
    <contour>
      <point x="792" y="0" type="move" name="blwm_halant"/>
    </contour>
    <contour>
      <point x="792" y="0" type="move" name="blwm_Ukaar"/>
    </contour>
    <contour>
      <point x="858" y="0" type="move" name="blwm_VocalicR"/>
    </contour>
    <contour>
      <point x="728" y="623" type="move" name="abvm_Anusvara"/>
    </contour>
    <contour>
      <point x="792" y="0" type="move" name="blwm_Uukaar"/>
    </contour>
    <contour>
      <point x="844" y="623" type="move" name="abvm_Ekaar"/>
    </contour>
    <component base="dvL"/>
    <component base="dvD_RA" xOffset="439"/>
  </outline>
</glyph>
<glyph name="dvL_TTA" format="1">
  <advance width="917"/>
  <outline>
    <contour>
      <point x="650" y="46" type="move" name="blwm_halant"/>
    </contour>
    <contour>
      <point x="686" y="-20" type="move" name="blwm_Ukaar"/>
    </contour>
    <contour>
      <point x="787" y="79" type="move" name="blwm_Rashtra"/>
    </contour>
    <contour>
      <point x="752" y="-20" type="move" name="blwm_VocalicR"/>
    </contour>
    <contour>
      <point x="731" y="623" type="move" name="abvm_Anusvara"/>
    </contour>
    <contour>
      <point x="647" y="-24" type="move" name="blwm_Uukaar"/>
    </contour>
    <contour>
      <point x="822" y="623" type="move" name="abvm_Ekaar"/>
    </contour>
    <component base="dvL"/>
    <component base="dvTTA" xOffset="438"/>
  </outline>
</glyph>
<glyph name="dvL_TTHA" format="1">
  <advance width="943"/>
  <outline>
    <contour>
      <point x="645" y="46" type="move" name="blwm_halant"/>
    </contour>
    <contour>
      <point x="674" y="-20" type="move" name="blwm_Ukaar"/>
    </contour>
    <contour>
      <point x="784" y="79" type="move" name="blwm_Rashtra"/>
    </contour>
    <contour>
      <point x="749" y="-20" type="move" name="blwm_VocalicR"/>
    </contour>
    <contour>
      <point x="724" y="623" type="move" name="abvm_Anusvara"/>
    </contour>
    <contour>
      <point x="642" y="-24" type="move" name="blwm_Uukaar"/>
    </contour>
    <contour>
      <point x="828" y="623" type="move" name="abvm_Ekaar"/>
    </contour>
    <component base="dvL"/>
    <component base="dvTTHA" xOffset="435"/>
  </outline>
</glyph>
<glyph name="dvNN_DDHA" format="1">
  <advance width="909"/>
  <outline>
    <contour>
      <point x="641" y="46" type="move" name="blwm_halant"/>
    </contour>
    <contour>
      <point x="667" y="-20" type="move" name="blwm_Ukaar"/>
    </contour>
    <contour>
      <point x="781" y="79" type="move" name="blwm_Rashtra"/>
    </contour>
    <contour>
      <point x="737" y="-20" type="move" name="blwm_VocalicR"/>
    </contour>
    <contour>
      <point x="724" y="623" type="move" name="abvm_Anusvara"/>
    </contour>
    <contour>
      <point x="632" y="-24" type="move" name="blwm_Uukaar"/>
    </contour>
    <contour>
      <point x="820" y="623" type="move" name="abvm_Ekaar"/>
    </contour>
    <component base="dvNN"/>
    <component base="dvDDHA" xOffset="423"/>
  </outline>
</glyph>
<glyph name="dvNN_TTA" format="1">
  <advance width="904"/>
  <outline>
    <contour>
      <point x="643" y="46" type="move" name="blwm_halant"/>
    </contour>
    <contour>
      <point x="679" y="-20" type="move" name="blwm_Ukaar"/>
    </contour>
    <contour>
      <point x="780" y="79" type="move" name="blwm_Rashtra"/>
    </contour>
    <contour>
      <point x="745" y="-20" type="move" name="blwm_VocalicR"/>
    </contour>
    <contour>
      <point x="725" y="623" type="move" name="abvm_Anusvara"/>
    </contour>
    <contour>
      <point x="640" y="-24" type="move" name="blwm_Uukaar"/>
    </contour>
    <contour>
      <point x="815" y="623" type="move" name="abvm_Ekaar"/>
    </contour>
    <component base="dvNN"/>
    <component base="dvTTA" xOffset="425"/>
  </outline>
</glyph>
<glyph name="dvNN_TTHA" format="1">
  <advance width="934"/>
  <outline>
    <contour>
      <point x="638" y="46" type="move" name="blwm_halant"/>
    </contour>
    <contour>
      <point x="667" y="-20" type="move" name="blwm_Ukaar"/>
    </contour>
    <contour>
      <point x="777" y="79" type="move" name="blwm_Rashtra"/>
    </contour>
    <contour>
      <point x="743" y="-20" type="move" name="blwm_VocalicR"/>
    </contour>
    <contour>
      <point x="717" y="623" type="move" name="abvm_Anusvara"/>
    </contour>
    <contour>
      <point x="635" y="-24" type="move" name="blwm_Uukaar"/>
    </contour>
    <contour>
      <point x="822" y="623" type="move" name="abvm_Ekaar"/>
    </contour>
    <component base="dvNN"/>
    <component base="dvTTHA" xOffset="426"/>
  </outline>
</glyph>
<glyph name="dvN_DA" format="1">
  <advance width="724"/>
  <outline>
    <contour>
      <point x="590" y="9" type="move" name="blwm_halant"/>
    </contour>
    <contour>
      <point x="590" y="0" type="move" name="blwm_Ukaar"/>
    </contour>
    <contour>
      <point x="657" y="0" type="move" name="blwm_VocalicR"/>
    </contour>
    <contour>
      <point x="522" y="623" type="move" name="abvm_Anusvara"/>
    </contour>
    <contour>
      <point x="590" y="0" type="move" name="blwm_Uukaar"/>
    </contour>
    <contour>
      <point x="644" y="623" type="move" name="abvm_Ekaar"/>
    </contour>
    <component base="dvN"/>
    <component base="dvDA" xOffset="237"/>
  </outline>
</glyph>
<glyph name="dvN_KA" format="1">
  <advance width="976"/>
  <outline>
    <contour>
      <point x="579" y="0" type="move" name="blwm_halant"/>
    </contour>
    <contour>
      <point x="579" y="0" type="move" name="blwm_Ukaar"/>
    </contour>
    <contour>
      <point x="646" y="0" type="move" name="blwm_VocalicR"/>
    </contour>
    <contour>
      <point x="646" y="623" type="move" name="abvm_Anusvara"/>
    </contour>
    <contour>
      <point x="579" y="0" type="move" name="blwm_Uukaar"/>
    </contour>
    <contour>
      <point x="646" y="623" type="move" name="abvm_Ekaar"/>
    </contour>
    <component base="dvKA" xOffset="249"/>
    <component base="dvN"/>
  </outline>
</glyph>
<glyph name="dvN_PHA" format="1">
  <advance width="976"/>
  <outline>
    <contour>
      <point x="578" y="0" type="move" name="blwm_halant"/>
    </contour>
    <contour>
      <point x="578" y="0" type="move" name="blwm_Ukaar"/>
    </contour>
    <contour>
      <point x="646" y="0" type="move" name="blwm_VocalicR"/>
    </contour>
    <contour>
      <point x="646" y="623" type="move" name="abvm_Anusvara"/>
    </contour>
    <contour>
      <point x="578" y="0" type="move" name="blwm_Uukaar"/>
    </contour>
    <contour>
      <point x="646" y="623" type="move" name="abvm_Ekaar"/>
    </contour>
    <component base="dvPHA" xOffset="236"/>
    <component base="dvN"/>
  </outline>
</glyph>
<glyph name="dvN_PH_RA" format="1">
  <advance width="980"/>
  <outline>
    <contour>
      <point x="581" y="0" type="move" name="blwm_halant"/>
    </contour>
    <contour>
      <point x="581" y="0" type="move" name="blwm_Ukaar"/>
    </contour>
    <contour>
      <point x="649" y="0" type="move" name="blwm_VocalicR"/>
    </contour>
    <contour>
      <point x="649" y="623" type="move" name="abvm_Anusvara"/>
    </contour>
    <contour>
      <point x="581" y="0" type="move" name="blwm_Uukaar"/>
    </contour>
    <contour>
      <point x="649" y="623" type="move" name="abvm_Ekaar"/>
    </contour>
    <component base="dvN"/>
    <component base="dvPH_RA" xOffset="236"/>
  </outline>
</glyph>
<glyph name="dvN_TTA" format="1">
  <advance width="709"/>
  <outline>
    <contour>
      <point x="442" y="46" type="move" name="blwm_halant"/>
    </contour>
    <contour>
      <point x="478" y="-20" type="move" name="blwm_Ukaar"/>
    </contour>
    <contour>
      <point x="579" y="79" type="move" name="blwm_Rashtra"/>
    </contour>
    <contour>
      <point x="544" y="-20" type="move" name="blwm_VocalicR"/>
    </contour>
    <contour>
      <point x="524" y="623" type="move" name="abvm_Anusvara"/>
    </contour>
    <contour>
      <point x="439" y="-24" type="move" name="blwm_Uukaar"/>
    </contour>
    <contour>
      <point x="614" y="623" type="move" name="abvm_Ekaar"/>
    </contour>
    <component base="dvTTA" xOffset="230"/>
    <component base="dvN"/>
  </outline>
</glyph>
<glyph name="dvPH_TTA" format="1">
  <advance width="1003"/>
  <outline>
    <contour>
      <point x="736" y="46" type="move" name="blwm_halant"/>
    </contour>
    <contour>
      <point x="772" y="-20" type="move" name="blwm_Ukaar"/>
    </contour>
    <contour>
      <point x="873" y="79" type="move" name="blwm_Rashtra"/>
    </contour>
    <contour>
      <point x="838" y="-20" type="move" name="blwm_VocalicR"/>
    </contour>
    <contour>
      <point x="818" y="623" type="move" name="abvm_Anusvara"/>
    </contour>
    <contour>
      <point x="733" y="-24" type="move" name="blwm_Uukaar"/>
    </contour>
    <contour>
      <point x="908" y="623" type="move" name="abvm_Ekaar"/>
    </contour>
    <component base="dvTTA" xOffset="524"/>
    <component base="dvPH"/>
  </outline>
</glyph>
<glyph name="dvPHx_RA" format="1">
  <advance width="743"/>
  <outline>
    <contour>
      <point x="345" y="0" type="move" name="blwm_halant"/>
    </contour>
    <contour>
      <point x="345" y="0" type="move" name="blwm_Ukaar"/>
    </contour>
    <contour>
      <point x="412" y="0" type="move" name="blwm_VocalicR"/>
    </contour>
    <contour>
      <point x="412" y="623" type="move" name="abvm_Anusvara"/>
    </contour>
    <contour>
      <point x="345" y="0" type="move" name="blwm_Uukaar"/>
    </contour>
    <contour>
      <point x="412" y="623" type="move" name="abvm_Ekaar"/>
    </contour>
    <component base="dvPH_RA"/>
    <component base="dvNukta" xOffset="413" yOffset="-4"/>
  </outline>
</glyph>
<glyph name="dvSHA.amvR" format="1">
  <advance width="581"/>
  <outline>
    <contour>
      <point x="499" y="30" type="move" name="blwm_VocalicR"/>
    </contour>
    <contour>
      <point x="431" y="21" type="line"/>
      <point x="431" y="9"/>
      <point x="436" y="6"/>
      <point x="446" y="6" type="curve" smooth="yes"/>
      <point x="484" y="6" type="line" smooth="yes"/>
      <point x="494" y="6"/>
      <point x="499" y="9"/>
      <point x="499" y="21" type="curve" smooth="yes"/>
      <point x="499" y="553" type="line"/>
      <point x="499" y="559"/>
      <point x="502" y="563"/>
      <point x="509" y="563" type="curve" smooth="yes"/>
      <point x="585" y="563" type="line" smooth="yes"/>
      <point x="596" y="563"/>
      <point x="600" y="568"/>
      <point x="600" y="578" type="curve" smooth="yes"/>
      <point x="600" y="608" type="line" smooth="yes"/>
      <point x="600" y="618"/>
      <point x="596" y="623"/>
      <point x="585" y="623" type="curve" smooth="yes"/>
      <point x="459" y="623" type="line" smooth="yes"/>
      <point x="442" y="623"/>
      <point x="431" y="610"/>
      <point x="431" y="593" type="curve" smooth="yes"/>
    </contour>
    <contour>
      <point x="56" y="210" type="line"/>
      <point x="59" y="206"/>
      <point x="63" y="205"/>
      <point x="69" y="205" type="curve" smooth="yes"/>
      <point x="72" y="205"/>
      <point x="77" y="207"/>
      <point x="80" y="209" type="curve" smooth="yes"/>
      <point x="249" y="313" type="line" smooth="yes"/>
      <point x="312" y="352"/>
      <point x="357" y="398"/>
      <point x="357" y="487" type="curve" smooth="yes"/>
      <point x="357" y="581"/>
      <point x="312" y="624"/>
      <point x="215" y="624" type="curve" smooth="yes"/>
      <point x="114" y="624"/>
      <point x="69" y="581"/>
      <point x="69" y="489" type="curve" smooth="yes"/>
      <point x="69" y="408"/>
      <point x="115" y="363"/>
      <point x="168" y="329" type="curve" smooth="yes"/>
      <point x="444" y="152" type="line"/>
      <point x="457" y="218" type="line"/>
      <point x="206" y="378" type="line" smooth="yes"/>
      <point x="166" y="403"/>
      <point x="138" y="434"/>
      <point x="138" y="487" type="curve" smooth="yes"/>
      <point x="138" y="546"/>
      <point x="161" y="565"/>
      <point x="215" y="565" type="curve" smooth="yes"/>
      <point x="268" y="565"/>
      <point x="290" y="546"/>
      <point x="290" y="487" type="curve" smooth="yes"/>
      <point x="290" y="440"/>
      <point x="271" y="400"/>
      <point x="211" y="362" type="curve" smooth="yes"/>
      <point x="35" y="256" type="line" smooth="yes"/>
      <point x="30" y="253"/>
      <point x="28" y="250"/>
      <point x="28" y="246" type="curve" smooth="yes"/>
      <point x="28" y="243"/>
      <point x="29" y="240"/>
      <point x="31" y="237" type="curve" smooth="yes"/>
    </contour>
  </outline>
</glyph>
<glyph name="dvS_KA" format="1">
  <advance width="1089"/>
  <outline>
    <contour>
      <point x="691" y="0" type="move" name="blwm_halant"/>
    </contour>
    <contour>
      <point x="691" y="0" type="move" name="blwm_Ukaar"/>
    </contour>
    <contour>
      <point x="758" y="0" type="move" name="blwm_VocalicR"/>
    </contour>
    <contour>
      <point x="758" y="623" type="move" name="abvm_Anusvara"/>
    </contour>
    <contour>
      <point x="691" y="0" type="move" name="blwm_Uukaar"/>
    </contour>
    <contour>
      <point x="758" y="623" type="move" name="abvm_Ekaar"/>
    </contour>
    <component base="dvKA" xOffset="362"/>
    <component base="dvS"/>
  </outline>
</glyph>
<glyph name="dvS_K_RA" format="1">
  <advance width="1088"/>
  <outline>
    <contour>
      <point x="691" y="0" type="move" name="blwm_halant"/>
    </contour>
    <contour>
      <point x="691" y="0" type="move" name="blwm_Ukaar"/>
    </contour>
    <contour>
      <point x="758" y="0" type="move" name="blwm_VocalicR"/>
    </contour>
    <contour>
      <point x="758" y="623" type="move" name="abvm_Anusvara"/>
    </contour>
    <contour>
      <point x="691" y="0" type="move" name="blwm_Uukaar"/>
    </contour>
    <contour>
      <point x="758" y="623" type="move" name="abvm_Ekaar"/>
    </contour>
    <component base="dvK_RA" xOffset="361"/>
    <component base="dvS"/>
  </outline>
</glyph>
<glyph name="dvS_PHA" format="1">
  <advance width="1096"/>
  <outline>
    <contour>
      <point x="698" y="0" type="move" name="blwm_halant"/>
    </contour>
    <contour>
      <point x="698" y="0" type="move" name="blwm_Ukaar"/>
    </contour>
    <contour>
      <point x="766" y="0" type="move" name="blwm_VocalicR"/>
    </contour>
    <contour>
      <point x="766" y="623" type="move" name="abvm_Anusvara"/>
    </contour>
    <contour>
      <point x="698" y="0" type="move" name="blwm_Uukaar"/>
    </contour>
    <contour>
      <point x="766" y="623" type="move" name="abvm_Ekaar"/>
    </contour>
    <component base="dvPHA" xOffset="356"/>
    <component base="dvS"/>
  </outline>
</glyph>
<glyph name="dvS_TTA" format="1">
  <advance width="843"/>
  <outline>
    <contour>
      <point x="576" y="46" type="move" name="blwm_halant"/>
    </contour>
    <contour>
      <point x="612" y="-20" type="move" name="blwm_Ukaar"/>
    </contour>
    <contour>
      <point x="713" y="79" type="move" name="blwm_Rashtra"/>
    </contour>
    <contour>
      <point x="678" y="-20" type="move" name="blwm_VocalicR"/>
    </contour>
    <contour>
      <point x="657" y="623" type="move" name="abvm_Anusvara"/>
    </contour>
    <contour>
      <point x="573" y="-24" type="move" name="blwm_Uukaar"/>
    </contour>
    <contour>
      <point x="748" y="623" type="move" name="abvm_Ekaar"/>
    </contour>
    <component base="dvTTA" xOffset="364"/>
    <component base="dvS"/>
  </outline>
</glyph>
<glyph name="dvTTH_NA" format="1">
  <advance width="517"/>
  <outline>
    <contour>
      <point x="332" y="-245" type="move" name="blwm_halant"/>
    </contour>
    <contour>
      <point x="332" y="-245" type="move" name="blwm_Ukaar"/>
    </contour>
    <contour>
      <point x="401" y="-245" type="move" name="blwm_VocalicR"/>
    </contour>
    <contour>
      <point x="290" y="623" type="move" name="abvm_Anusvara"/>
    </contour>
    <contour>
      <point x="332" y="-245" type="move" name="blwm_Uukaar"/>
    </contour>
    <contour>
      <point x="404" y="623" type="move" name="abvm_Ekaar"/>
    </contour>
    <contour>
      <point x="520" y="563" type="line"/>
      <point x="531" y="563"/>
      <point x="536" y="568"/>
      <point x="536" y="578" type="curve" smooth="yes"/>
      <point x="536" y="608" type="line" smooth="yes"/>
      <point x="536" y="618"/>
      <point x="531" y="623"/>
      <point x="520" y="623" type="curve" smooth="yes"/>
      <point x="-3" y="623" type="line" smooth="yes"/>
      <point x="-15" y="623"/>
      <point x="-19" y="618"/>
      <point x="-19" y="608" type="curve" smooth="yes"/>
      <point x="-19" y="578" type="line" smooth="yes"/>
      <point x="-19" y="568"/>
      <point x="-15" y="563"/>
      <point x="-3" y="563" type="curve" smooth="yes"/>
      <point x="326" y="563" type="line" smooth="yes"/>
      <point x="333" y="563"/>
      <point x="336" y="559"/>
      <point x="336" y="553" type="curve" smooth="yes"/>
      <point x="336" y="516" type="line" smooth="yes"/>
      <point x="336" y="464"/>
      <point x="312" y="451"/>
      <point x="271" y="451" type="curve" smooth="yes"/>
      <point x="208" y="451" type="line" smooth="yes"/>
      <point x="115" y="451"/>
      <point x="58" y="394"/>
      <point x="58" y="300" type="curve" smooth="yes"/>
      <point x="58" y="245" type="line" smooth="yes"/>
      <point x="58" y="150"/>
      <point x="115" y="93"/>
      <point x="208" y="93" type="curve" smooth="yes"/>
      <point x="300" y="93" type="line" smooth="yes"/>
      <point x="392" y="93"/>
      <point x="450" y="149"/>
      <point x="450" y="241" type="curve" smooth="yes"/>
      <point x="450" y="312" type="line" smooth="yes"/>
      <point x="450" y="374"/>
      <point x="416" y="417"/>
      <point x="366" y="427" type="curve"/>
      <point x="366" y="431" type="line"/>
      <point x="394" y="444"/>
      <point x="404" y="467"/>
      <point x="404" y="505" type="curve" smooth="yes"/>
      <point x="404" y="553" type="line" smooth="yes"/>
      <point x="404" y="559"/>
      <point x="407" y="563"/>
      <point x="414" y="563" type="curve"/>
    </contour>
    <contour>
      <point x="295" y="389" type="line"/>
      <point x="353" y="389"/>
      <point x="383" y="355"/>
      <point x="383" y="298" type="curve" smooth="yes"/>
      <point x="383" y="248" type="line" smooth="yes"/>
      <point x="383" y="188"/>
      <point x="351" y="155"/>
      <point x="292" y="155" type="curve"/>
      <point x="216" y="155" type="line" smooth="yes"/>
      <point x="157" y="155"/>
      <point x="126" y="188"/>
      <point x="126" y="248" type="curve" smooth="yes"/>
      <point x="126" y="298" type="line" smooth="yes"/>
      <point x="126" y="358"/>
      <point x="155" y="389"/>
      <point x="214" y="389" type="curve" smooth="yes"/>
    </contour>
    <contour>
      <point x="332" y="131" type="line"/>
      <point x="332" y="13" type="line" smooth="yes"/>
      <point x="332" y="7"/>
      <point x="329" y="3"/>
      <point x="322" y="3" type="curve" smooth="yes"/>
      <point x="166" y="3" type="line" smooth="yes"/>
      <point x="100" y="3"/>
      <point x="61" y="-39"/>
      <point x="61" y="-98" type="curve" smooth="yes"/>
      <point x="61" y="-124"/>
      <point x="66" y="-154"/>
      <point x="77" y="-177" type="curve" smooth="yes"/>
      <point x="82" y="-184"/>
      <point x="89" y="-188"/>
      <point x="99" y="-188" type="curve" smooth="yes"/>
      <point x="127" y="-188" type="line" smooth="yes"/>
      <point x="136" y="-188"/>
      <point x="141" y="-183"/>
      <point x="141" y="-175" type="curve" smooth="yes"/>
      <point x="141" y="-169"/>
      <point x="140" y="-165"/>
      <point x="137" y="-156" type="curve" smooth="yes"/>
      <point x="133" y="-141"/>
      <point x="129" y="-126"/>
      <point x="129" y="-110" type="curve" smooth="yes"/>
      <point x="129" y="-75"/>
      <point x="148" y="-58"/>
      <point x="187" y="-58" type="curve" smooth="yes"/>
      <point x="322" y="-58" type="line" smooth="yes"/>
      <point x="329" y="-58"/>
      <point x="332" y="-62"/>
      <point x="332" y="-69" type="curve" smooth="yes"/>
      <point x="332" y="-230" type="line" smooth="yes"/>
      <point x="332" y="-241"/>
      <point x="337" y="-245"/>
      <point x="347" y="-245" type="curve" smooth="yes"/>
      <point x="385" y="-245" type="line" smooth="yes"/>
      <point x="395" y="-245"/>
      <point x="400" y="-241"/>
      <point x="400" y="-230" type="curve" smooth="yes"/>
      <point x="400" y="131" type="line"/>
    </contour>
  </outline>
</glyph>
<glyph name="dvTTH_RA" format="1">
  <advance width="509"/>
  <outline>
    <contour>
      <point x="221" y="-97" type="move" name="blwm_halant"/>
    </contour>
    <contour>
      <point x="248" y="-164" type="move" name="blwm_Ukaar"/>
    </contour>
    <contour>
      <point x="327" y="-164" type="move" name="blwm_VocalicR"/>
    </contour>
    <contour>
      <point x="296" y="623" type="move" name="abvm_Anusvara"/>
    </contour>
    <contour>
      <point x="218" y="-169" type="move" name="blwm_Uukaar"/>
    </contour>
    <contour>
      <point x="396" y="623" type="move" name="abvm_Ekaar"/>
    </contour>
    <component base="dvRashtrasign" xOffset="512" yOffset="79"/>
    <component base="dvTTHA"/>
  </outline>
</glyph>
<glyph name="dvTT_NA" format="1">
  <advance width="499"/>
  <outline>
    <contour>
      <point x="332" y="-245" type="move" name="blwm_halant"/>
    </contour>
    <contour>
      <point x="332" y="-245" type="move" name="blwm_Ukaar"/>
    </contour>
    <contour>
      <point x="400" y="-245" type="move" name="blwm_VocalicR"/>
    </contour>
    <contour>
      <point x="297" y="623" type="move" name="abvm_Anusvara"/>
    </contour>
    <contour>
      <point x="332" y="-245" type="move" name="blwm_Uukaar"/>
    </contour>
    <contour>
      <point x="397" y="623" type="move" name="abvm_Ekaar"/>
    </contour>
    <contour>
      <point x="209" y="439" type="line"/>
      <point x="113" y="439"/>
      <point x="59" y="381"/>
      <point x="59" y="289" type="curve"/>
      <point x="59" y="245" type="line"/>
      <point x="59" y="153"/>
      <point x="113" y="93"/>
      <point x="209" y="93" type="curve" smooth="yes"/>
      <point x="302" y="93" type="line" smooth="yes"/>
      <point x="396" y="93"/>
      <point x="452" y="147"/>
      <point x="452" y="243" type="curve" smooth="yes"/>
      <point x="452" y="272" type="line" smooth="yes"/>
      <point x="452" y="285"/>
      <point x="447" y="290"/>
      <point x="436" y="290" type="curve" smooth="yes"/>
      <point x="401" y="290" type="line" smooth="yes"/>
      <point x="392" y="290"/>
      <point x="387" y="285"/>
      <point x="387" y="272" type="curve" smooth="yes"/>
      <point x="387" y="243" type="line" smooth="yes"/>
      <point x="387" y="183"/>
      <point x="355" y="155"/>
      <point x="297" y="155" type="curve" smooth="yes"/>
      <point x="215" y="155" type="line" smooth="yes"/>
      <point x="156" y="155"/>
      <point x="125" y="185"/>
      <point x="125" y="244" type="curve" smooth="yes"/>
      <point x="125" y="288" type="line" smooth="yes"/>
      <point x="125" y="348"/>
      <point x="156" y="378"/>
      <point x="215" y="378" type="curve"/>
      <point x="363" y="378" type="line" smooth="yes"/>
      <point x="382" y="378"/>
      <point x="397" y="389"/>
      <point x="397" y="412" type="curve" smooth="yes"/>
      <point x="397" y="553" type="line" smooth="yes"/>
      <point x="397" y="559"/>
      <point x="400" y="563"/>
      <point x="408" y="563" type="curve" smooth="yes"/>
      <point x="502" y="563" type="line" smooth="yes"/>
      <point x="513" y="563"/>
      <point x="518" y="568"/>
      <point x="518" y="578" type="curve" smooth="yes"/>
      <point x="518" y="608" type="line" smooth="yes"/>
      <point x="518" y="618"/>
      <point x="513" y="623"/>
      <point x="502" y="623" type="curve" smooth="yes"/>
      <point x="-3" y="623" type="line" smooth="yes"/>
      <point x="-15" y="623"/>
      <point x="-19" y="618"/>
      <point x="-19" y="608" type="curve" smooth="yes"/>
      <point x="-19" y="578" type="line" smooth="yes"/>
      <point x="-19" y="568"/>
      <point x="-15" y="563"/>
      <point x="-3" y="563" type="curve" smooth="yes"/>
      <point x="320" y="563" type="line" smooth="yes"/>
      <point x="327" y="563"/>
      <point x="330" y="559"/>
      <point x="330" y="553" type="curve" smooth="yes"/>
      <point x="330" y="450" type="line" smooth="yes"/>
      <point x="330" y="443"/>
      <point x="326" y="439"/>
      <point x="319" y="439" type="curve"/>
    </contour>
    <contour>
      <point x="332" y="131" type="line"/>
      <point x="332" y="13" type="line" smooth="yes"/>
      <point x="332" y="7"/>
      <point x="329" y="3"/>
      <point x="322" y="3" type="curve" smooth="yes"/>
      <point x="166" y="3" type="line" smooth="yes"/>
      <point x="100" y="3"/>
      <point x="61" y="-39"/>
      <point x="61" y="-98" type="curve" smooth="yes"/>
      <point x="61" y="-124"/>
      <point x="66" y="-154"/>
      <point x="77" y="-177" type="curve" smooth="yes"/>
      <point x="82" y="-184"/>
      <point x="89" y="-188"/>
      <point x="99" y="-188" type="curve" smooth="yes"/>
      <point x="127" y="-188" type="line" smooth="yes"/>
      <point x="136" y="-188"/>
      <point x="141" y="-183"/>
      <point x="141" y="-175" type="curve" smooth="yes"/>
      <point x="141" y="-169"/>
      <point x="140" y="-165"/>
      <point x="137" y="-156" type="curve" smooth="yes"/>
      <point x="133" y="-141"/>
      <point x="129" y="-126"/>
      <point x="129" y="-110" type="curve" smooth="yes"/>
      <point x="129" y="-75"/>
      <point x="148" y="-58"/>
      <point x="187" y="-58" type="curve" smooth="yes"/>
      <point x="322" y="-58" type="line" smooth="yes"/>
      <point x="329" y="-58"/>
      <point x="332" y="-62"/>
      <point x="332" y="-69" type="curve" smooth="yes"/>
      <point x="332" y="-230" type="line" smooth="yes"/>
      <point x="332" y="-241"/>
      <point x="337" y="-245"/>
      <point x="347" y="-245" type="curve" smooth="yes"/>
      <point x="385" y="-245" type="line" smooth="yes"/>
      <point x="395" y="-245"/>
      <point x="400" y="-241"/>
      <point x="400" y="-230" type="curve" smooth="yes"/>
      <point x="400" y="131" type="line"/>
    </contour>
  </outline>
</glyph>
<glyph name="dvTT_RA" format="1">
  <advance width="479"/>
  <outline>
    <contour>
      <point x="221" y="-91" type="move" name="blwm_halant"/>
    </contour>
    <contour>
      <point x="252" y="-163" type="move" name="blwm_Ukaar"/>
    </contour>
    <contour>
      <point x="323" y="-163" type="move" name="blwm_VocalicR"/>
    </contour>
    <contour>
      <point x="294" y="623" type="move" name="abvm_Anusvara"/>
    </contour>
    <contour>
      <point x="215" y="-168" type="move" name="blwm_Uukaar"/>
    </contour>
    <contour>
      <point x="384" y="623" type="move" name="abvm_Ekaar"/>
    </contour>
    <component base="dvRashtrasign" xOffset="510" yOffset="80"/>
    <component base="dvTTA"/>
  </outline>
</glyph>
